<svg xmlns="http://www.w3.org/2000/svg" xmlns:xlink="http://www.w3.org/1999/xlink" viewBox="0 0 416.1 173.45"><defs><style>.cls-1{fill:none;}.cls-2,.cls-6{fill:#fff;}.cls-3{fill:#231f20;}.cls-3,.cls-6,.cls-7{fill-rule:evenodd;}.cls-4,.cls-7{fill:#ed1c24;}.cls-5{clip-path:url(#clip-path);}</style><clipPath id="clip-path"><rect class="cls-1" x="68.62" y="22.75" width="276.34" height="57.39"/></clipPath></defs><title>Asset 30</title><g id="Layer_2" data-name="Layer 2"><g id="Layer_1-2" data-name="Layer 1"><rect class="cls-2" x="68.62" y="22.75" width="278.86" height="103.62"/><path class="cls-3" d="M86.44,104H82.72l-1.48-3.94h-3.4V97.18h2.31l-2.31-6.36V86.71h1.82Zm-8.6-3.94H74.47L73.08,104H69.45l6.6-17.33h1.79v4.11l0-.07-2.28,6.43h2.31Z"/><path class="cls-3" d="M106.59,86.72A10.23,10.23,0,0,1,109,87a5.63,5.63,0,0,1,2.55,1.6,7.59,7.59,0,0,1,1.62,2.8,13.12,13.12,0,0,1,.55,4.1,11.52,11.52,0,0,1-.52,3.69,7.57,7.57,0,0,1-1.81,3.06,5.93,5.93,0,0,1-2.4,1.38,8.65,8.65,0,0,1-2.42.36v-2.94a5.31,5.31,0,0,0,1-.14,3.14,3.14,0,0,0,1.38-.72,3.71,3.71,0,0,0,.89-1.67,11.56,11.56,0,0,0,.35-3.17,10.64,10.64,0,0,0-.35-3.09,3.91,3.91,0,0,0-1-1.68,3.23,3.23,0,0,0-1.58-.81,4.79,4.79,0,0,0-.72-.1Zm-7,0h7v3c-.52,0-1.21-.07-2.09-.07H103v11.48h2.55c.4,0,.76,0,1.07,0V104h-7Z"/><path class="cls-3" d="M134.25,104,128.2,86.71h3.71l4.28,12.83,4.15-12.83H144L137.9,104Z"/><path class="cls-3" d="M157.52,104V86.71h12.55v2.93h-9.13v3.85h8.5V96.4h-8.5v4.72h9.46V104Z"/><path class="cls-3" d="M190.71,86.71H191a12,12,0,0,1,3.94.47,3.88,3.88,0,0,1,2,1.66,5.1,5.1,0,0,1,.74,2.73,4.71,4.71,0,0,1-1.12,3.22,5.34,5.34,0,0,1-3.35,1.6,7.88,7.88,0,0,1,1.83,1.46,18.76,18.76,0,0,1,1.94,2.81l2.07,3.38H195l-2.48-3.77a23.86,23.86,0,0,0-1.79-2.54V94a8.88,8.88,0,0,0,2.15-.2,1.82,1.82,0,0,0,1-.74,2.27,2.27,0,0,0,.35-1.3,2.13,2.13,0,0,0-.46-1.41,2.08,2.08,0,0,0-1.29-.68c-.22,0-.79,0-1.71,0ZM183.84,104V86.71h6.87v2.94h-3.45V94h3.45v3.7h0a2.55,2.55,0,0,0-1-.72,5.51,5.51,0,0,0-1.72-.19h-.69V104Z"/><path class="cls-3" d="M216.26,104V89.64h-5V86.71h13.45v2.93h-5V104Z"/><path class="cls-3" d="M237.39,104V86.71h3.42V104Z"/><path class="cls-3" d="M252.11,98.4l3.33-.33a4.16,4.16,0,0,0,1.21,2.52,3.68,3.68,0,0,0,2.48.8,3.74,3.74,0,0,0,2.49-.72,2.13,2.13,0,0,0,.84-1.67,1.57,1.57,0,0,0-.36-1,2.7,2.7,0,0,0-1.23-.75c-.4-.15-1.31-.4-2.73-.76a9.2,9.2,0,0,1-3.86-1.71,4.64,4.64,0,0,1-.83-6A4.67,4.67,0,0,1,255.57,87a8.33,8.33,0,0,1,3.33-.6,7.06,7.06,0,0,1,4.8,1.42,5.12,5.12,0,0,1,1.69,3.83l-3.42.15A3,3,0,0,0,261,89.9a3.37,3.37,0,0,0-2.16-.59,3.83,3.83,0,0,0-2.34.63A1.27,1.27,0,0,0,256,91a1.33,1.33,0,0,0,.51,1,8.63,8.63,0,0,0,3.14,1.16,16.8,16.8,0,0,1,3.69,1.25,4.88,4.88,0,0,1,1.87,1.76,5.28,5.28,0,0,1,.68,2.76,5.17,5.17,0,0,1-.81,2.79,4.83,4.83,0,0,1-2.29,1.93,9.22,9.22,0,0,1-3.69.64,7.24,7.24,0,0,1-4.93-1.52A6.68,6.68,0,0,1,252.11,98.4Z"/><path class="cls-3" d="M281.21,104V86.71h3.42V104Z"/><path class="cls-3" d="M296.83,104V86.71h3.32l6.94,11.57V86.71h3.17V104h-3.43L300,92.74V104Z"/><path class="cls-3" d="M333.72,97.67V94.75h7.37v6.9a9.3,9.3,0,0,1-3.12,1.88,11.26,11.26,0,0,1-4.12.8,9.24,9.24,0,0,1-4.64-1.13,7.24,7.24,0,0,1-3-3.27,10.61,10.61,0,0,1-1-4.61,10.2,10.2,0,0,1,1.11-4.82,7.54,7.54,0,0,1,3.25-3.22,8.49,8.49,0,0,1,4.05-.86,7.93,7.93,0,0,1,4.92,1.35,6.11,6.11,0,0,1,2.29,3.74l-3.4.65a3.72,3.72,0,0,0-1.35-2,4,4,0,0,0-2.46-.73,4.57,4.57,0,0,0-3.56,1.45,6.19,6.19,0,0,0-1.32,4.32,6.85,6.85,0,0,0,1.34,4.62,4.4,4.4,0,0,0,3.5,1.54,5.74,5.74,0,0,0,2.16-.43,7,7,0,0,0,1.85-1v-2.2Z"/><rect class="cls-4" x="68.62" y="22.75" width="276.34" height="57.39"/><g class="cls-5"><path class="cls-6" d="M33.21,30.46H64.46L69.3,15.24Q71.72,7.64,74.14,0L79,15.24q2.4,7.6,4.84,15.22h31.27l-12.65,9.43L89.81,49.3q2.4,7.62,4.82,15.23t4.84,15.21c-4.23-3.12-8.45-6.27-12.67-9.4L74.14,60.91q-6.33,4.73-12.67,9.43l-12.68,9.4q2.4-7.59,4.83-15.21c1.6-5.06,3.22-10.15,4.84-15.23C54.24,46.17,50,43,45.82,39.89Z"/></g><path class="cls-3" d="M117.37,22.75H347.48V80.14H117.37Z"/><path class="cls-6" d="M315,59.13V47.26a29.15,29.15,0,0,0,3.2-.6,3.72,3.72,0,0,0,2.26-1.44,4.4,4.4,0,0,0,.87-2.67A4.26,4.26,0,0,0,320,39.13c-.9-.78-2.55-1.17-5-1.2V28.65h2.86a32.63,32.63,0,0,1,9.84,1.13,10.5,10.5,0,0,1,5.5,4.19,12.87,12.87,0,0,1,2.08,7.44A13.07,13.07,0,0,1,333.71,48a12.72,12.72,0,0,1-4.39,4.51,16.38,16.38,0,0,1-4.87,1.81,14,14,0,0,1,3.62,1.71,14.69,14.69,0,0,1,2.22,2.4,18.16,18.16,0,0,1,1.94,2.86L339,74.65h-15.7l-7.42-14.06C315.55,60.05,315.28,59.56,315,59.13Zm0-30.48v9.28h-6.34v9.35h5.86l.48,0V59.13A7.45,7.45,0,0,0,313.31,57a5.74,5.74,0,0,0-3.4-1.06h-1.23V74.65H294.73v-46Zm-60,38.41v-10h5l-5-16.49v-12h7.71l16.9,46H265.13l-2.2-7.59ZM125.53,59.43l13.22-.85a10.56,10.56,0,0,0,1.75,5,7.28,7.28,0,0,0,6.14,2.78A6.72,6.72,0,0,0,151.22,65a4.33,4.33,0,0,0,1.6-3.31,4.27,4.27,0,0,0-1.53-3.21q-1.53-1.41-7.11-2.66-9.15-2.11-13-5.58a11.37,11.37,0,0,1-3.92-8.88,12.27,12.27,0,0,1,2-6.71,13.45,13.45,0,0,1,6-5q4-1.8,11-1.8,8.63,0,13.15,3.28t5.38,10.43l-13.1.79a7.2,7.2,0,0,0-2.19-4.52A6.92,6.92,0,0,0,145,36.43a5.46,5.46,0,0,0-3.65,1A3.26,3.26,0,0,0,140.07,40a2.59,2.59,0,0,0,1,2c.66.61,2.21,1.17,4.67,1.7,6.07,1.33,10.41,2.7,13,4.07a13.79,13.79,0,0,1,5.73,5.09,13.14,13.14,0,0,1,1.8,6.82,15,15,0,0,1-9.08,13.81,26.39,26.39,0,0,1-10.82,1.93q-11.47,0-15.88-4.52a18,18,0,0,1-5-11.48ZM255.06,28.65v12l0,0L250.1,57.11h5v10h-8l-2.18,7.59H230.73l16.89-46Zm-74.47,0h42.22V40H208.64V74.65H194.75V40H180.59Z"/><path class="cls-7" d="M68.62,110.46H347.48v15.9H68.62Z"/><path class="cls-6" d="M13.24,164.62a6.41,6.41,0,0,1-.05.94,3,3,0,0,1-.14.63.77.77,0,0,1-.23.36.49.49,0,0,1-.33.11h-11a1.52,1.52,0,0,1-1-.36A1.47,1.47,0,0,1,0,165.12v-21.9a.54.54,0,0,1,.12-.34.94.94,0,0,1,.4-.24,3.71,3.71,0,0,1,.76-.14,9.71,9.71,0,0,1,1.18-.06,10,10,0,0,1,1.2.06,3.62,3.62,0,0,1,.74.14.94.94,0,0,1,.4.24.54.54,0,0,1,.12.34v19.4h7.57a.52.52,0,0,1,.33.1.75.75,0,0,1,.23.34,2,2,0,0,1,.14.62,6.25,6.25,0,0,1,.05.94Zm18-7.38a1.85,1.85,0,0,1-.38,1.27,1.37,1.37,0,0,1-1.06.41H19.64a6.46,6.46,0,0,0,.26,1.92,3.62,3.62,0,0,0,.79,1.46,3.54,3.54,0,0,0,1.42.92,6,6,0,0,0,2.07.32,11.47,11.47,0,0,0,2.16-.18A13,13,0,0,0,28,163c.45-.14.83-.27,1.13-.39a2.07,2.07,0,0,1,.72-.18.55.55,0,0,1,.28.06.52.52,0,0,1,.19.24,1.32,1.32,0,0,1,.1.47c0,.2,0,.46,0,.77s0,.51,0,.7a3,3,0,0,1-.06.49,1,1,0,0,1-.1.34,1.79,1.79,0,0,1-.2.28,2.49,2.49,0,0,1-.66.35,11.83,11.83,0,0,1-1.38.45c-.56.14-1.2.27-1.92.38a15.1,15.1,0,0,1-2.3.16,12,12,0,0,1-3.89-.56,6.88,6.88,0,0,1-2.78-1.69A7,7,0,0,1,15.42,162a13.65,13.65,0,0,1-.55-4.06,12.77,12.77,0,0,1,.58-4,8.3,8.3,0,0,1,1.68-3A7.16,7.16,0,0,1,19.8,149a9.17,9.17,0,0,1,3.55-.66,9.06,9.06,0,0,1,3.57.62,6.57,6.57,0,0,1,2.44,1.7,7,7,0,0,1,1.4,2.58,11.61,11.61,0,0,1,.44,3.25v.74Zm-4.54-1.33a4.85,4.85,0,0,0-.79-3.11,3.08,3.08,0,0,0-2.62-1.13,3.32,3.32,0,0,0-1.56.34,3.15,3.15,0,0,0-1.11.9,4.32,4.32,0,0,0-.67,1.34,7.29,7.29,0,0,0-.27,1.66Zm22.57,10.18a.52.52,0,0,1-.19.41,1.22,1.22,0,0,1-.59.21,7.09,7.09,0,0,1-1.19.07,7.19,7.19,0,0,1-1.22-.07,1,1,0,0,1-.54-.21.53.53,0,0,1-.16-.41v-1.32a7.32,7.32,0,0,1-2.34,1.7,6.74,6.74,0,0,1-2.91.61,8.16,8.16,0,0,1-2.43-.34,5.47,5.47,0,0,1-1.91-1A4.72,4.72,0,0,1,34.49,164a5.68,5.68,0,0,1-.45-2.34,5.28,5.28,0,0,1,.57-2.53,4.64,4.64,0,0,1,1.7-1.77,8.24,8.24,0,0,1,2.79-1A19.48,19.48,0,0,1,43,156h1.62v-1a5.15,5.15,0,0,0-.16-1.37,2.25,2.25,0,0,0-.52-1,2.17,2.17,0,0,0-1-.58,5.28,5.28,0,0,0-1.49-.18,7.81,7.81,0,0,0-2.09.26,11.32,11.32,0,0,0-1.63.58c-.47.21-.86.41-1.18.58a1.78,1.78,0,0,1-.77.26.57.57,0,0,1-.36-.13.92.92,0,0,1-.26-.37,2.27,2.27,0,0,1-.16-.6,4.75,4.75,0,0,1-.06-.78,3.6,3.6,0,0,1,.09-.91,1.45,1.45,0,0,1,.35-.61,3.65,3.65,0,0,1,.92-.59,10.4,10.4,0,0,1,1.53-.6,13.37,13.37,0,0,1,4-.64,12.9,12.9,0,0,1,3.34.38,5.61,5.61,0,0,1,2.28,1.18,4.54,4.54,0,0,1,1.31,2,9.62,9.62,0,0,1,.41,3v11.18ZM44.61,159H42.82a9.81,9.81,0,0,0-1.93.16,3.8,3.8,0,0,0-1.3.51,1.94,1.94,0,0,0-.73.81,2.39,2.39,0,0,0-.24,1.09,2.1,2.1,0,0,0,.66,1.64,2.62,2.62,0,0,0,1.83.59,3.42,3.42,0,0,0,1.82-.5,7.55,7.55,0,0,0,1.68-1.47V159ZM63.7,143.07a6.75,6.75,0,0,1,0,.87,1.78,1.78,0,0,1-.11.51.51.51,0,0,1-.17.24.36.36,0,0,1-.2.06.79.79,0,0,1-.29-.06,3.37,3.37,0,0,0-.39-.14,4.36,4.36,0,0,0-.55-.14,3.31,3.31,0,0,0-.74-.06,2.3,2.3,0,0,0-.87.15,1.47,1.47,0,0,0-.6.51,2.27,2.27,0,0,0-.35.89,6.39,6.39,0,0,0-.12,1.34v1.53h3a.5.5,0,0,1,.31.1.68.68,0,0,1,.24.3,3.69,3.69,0,0,1,.14.59,8.08,8.08,0,0,1,0,.92,4.27,4.27,0,0,1-.18,1.47c-.13.29-.31.44-.55.44h-3V166a.51.51,0,0,1-.11.33.81.81,0,0,1-.37.23,3.37,3.37,0,0,1-.73.14,9.35,9.35,0,0,1-1.14.05,9.07,9.07,0,0,1-1.13-.05,3.37,3.37,0,0,1-.73-.14.8.8,0,0,1-.38-.23.56.56,0,0,1-.1-.33V152.59H52.5c-.23,0-.41-.15-.53-.44a4.32,4.32,0,0,1-.17-1.47,8.08,8.08,0,0,1,0-.92,2.93,2.93,0,0,1,.13-.59.6.6,0,0,1,.23-.3.49.49,0,0,1,.32-.1h2.06v-1.4a11.89,11.89,0,0,1,.34-3,5.32,5.32,0,0,1,1-2.13A4.56,4.56,0,0,1,57.8,141a7.38,7.38,0,0,1,2.62-.42,7.7,7.7,0,0,1,1.38.12,6.73,6.73,0,0,1,1,.26,1.68,1.68,0,0,1,.5.26.89.89,0,0,1,.22.36,2.18,2.18,0,0,1,.12.59,7.89,7.89,0,0,1,0,.91Zm6.77,23a.52.52,0,0,1-.12.33.8.8,0,0,1-.38.23,3.41,3.41,0,0,1-.71.14,13,13,0,0,1-2.28,0,3.41,3.41,0,0,1-.71-.14.75.75,0,0,1-.38-.23.52.52,0,0,1-.12-.33V141.52a.5.5,0,0,1,.12-.33.7.7,0,0,1,.38-.25,3.28,3.28,0,0,1,.71-.16,10.86,10.86,0,0,1,2.28,0,3.28,3.28,0,0,1,.71.16.74.74,0,0,1,.38.25.5.5,0,0,1,.12.33V166Zm20-8.79a1.85,1.85,0,0,1-.38,1.27,1.37,1.37,0,0,1-1.06.41H78.92a6.46,6.46,0,0,0,.26,1.92A3.62,3.62,0,0,0,80,162.3a3.54,3.54,0,0,0,1.42.92,6,6,0,0,0,2.07.32,11.47,11.47,0,0,0,2.16-.18,13,13,0,0,0,1.61-.4c.45-.14.83-.27,1.13-.39a2.07,2.07,0,0,1,.72-.18.55.55,0,0,1,.28.06.52.52,0,0,1,.19.24,1.55,1.55,0,0,1,.11.47c0,.2,0,.46,0,.77s0,.51,0,.7a3,3,0,0,1-.06.49,1,1,0,0,1-.1.34,1.31,1.31,0,0,1-.2.28,2.49,2.49,0,0,1-.66.35,11.23,11.23,0,0,1-1.38.45c-.56.14-1.2.27-1.92.38a15.1,15.1,0,0,1-2.3.16,12,12,0,0,1-3.89-.56,6.88,6.88,0,0,1-2.78-1.69A7,7,0,0,1,74.7,162a13.65,13.65,0,0,1-.55-4.06,12.77,12.77,0,0,1,.58-4,8.3,8.3,0,0,1,1.68-3A7.16,7.16,0,0,1,79.08,149a9.18,9.18,0,0,1,3.56-.66,9,9,0,0,1,3.56.62,6.57,6.57,0,0,1,2.44,1.7,7,7,0,0,1,1.4,2.58,11.25,11.25,0,0,1,.44,3.25v.74Zm-4.54-1.33a4.85,4.85,0,0,0-.79-3.11,3.08,3.08,0,0,0-2.62-1.13A3.32,3.32,0,0,0,81,152a3.15,3.15,0,0,0-1.11.9,4.09,4.09,0,0,0-.66,1.34,6.78,6.78,0,0,0-.28,1.66Zm18,8.49a5.78,5.78,0,0,1-.1,1.26,1.14,1.14,0,0,1-.76.93,4.66,4.66,0,0,1-.77.24,8.16,8.16,0,0,1-1,.16,8.94,8.94,0,0,1-1,.06,7.61,7.61,0,0,1-2.42-.36,4.12,4.12,0,0,1-1.7-1.09,4.55,4.55,0,0,1-1-1.85,9.86,9.86,0,0,1-.32-2.65v-8.51h-2a.6.6,0,0,1-.54-.44,4,4,0,0,1-.19-1.47,6.12,6.12,0,0,1,0-.92,2.33,2.33,0,0,1,.14-.59.62.62,0,0,1,.24-.3.51.51,0,0,1,.32-.1h2v-3.72a.61.61,0,0,1,.1-.34.89.89,0,0,1,.38-.24,3.1,3.1,0,0,1,.73-.16c.3,0,.68,0,1.13,0s.84,0,1.14,0a3.22,3.22,0,0,1,.73.16.91.91,0,0,1,.37.24.62.62,0,0,1,.11.34v3.72h3.61a.51.51,0,0,1,.32.1.68.68,0,0,1,.24.3,2.85,2.85,0,0,1,.14.59,8.08,8.08,0,0,1,0,.92,4.27,4.27,0,0,1-.18,1.47c-.13.29-.31.44-.54.44H99.58v7.8a3.89,3.89,0,0,0,.43,2.05,1.65,1.65,0,0,0,1.52.68,2.76,2.76,0,0,0,.67-.07,3.07,3.07,0,0,0,.53-.15,3.22,3.22,0,0,0,.39-.15.83.83,0,0,1,.29-.06.36.36,0,0,1,.37.32,5.26,5.26,0,0,1,.11.53,6.88,6.88,0,0,1,0,.86Zm32,.44a7.76,7.76,0,0,1,.28,1.06.69.69,0,0,1-.15.59,1.22,1.22,0,0,1-.73.24,13.78,13.78,0,0,1-1.43.05c-.64,0-1.13,0-1.48,0a3.6,3.6,0,0,1-.82-.11.82.82,0,0,1-.39-.24,1.12,1.12,0,0,1-.18-.38l-1.58-4.85h-9.1l-1.52,4.71a1.39,1.39,0,0,1-.19.44.79.79,0,0,1-.39.28,3,3,0,0,1-.76.14c-.33,0-.77,0-1.3,0a11.51,11.51,0,0,1-1.34-.06,1,1,0,0,1-.67-.27.71.71,0,0,1-.13-.61,5.5,5.5,0,0,1,.28-1l7.42-21.4a1.55,1.55,0,0,1,.26-.5.89.89,0,0,1,.47-.3,3.79,3.79,0,0,1,.91-.14c.38,0,.89,0,1.53,0s1.32,0,1.75,0a4.43,4.43,0,0,1,1,.14,1,1,0,0,1,.53.3,2,2,0,0,1,.26.56L136,164.84Zm-11.07-17.7h0l-3.35,10.25h6.76l-3.39-10.25ZM154.81,166a.65.65,0,0,1-.09.35.68.68,0,0,1-.32.23,2.45,2.45,0,0,1-.61.13,8.15,8.15,0,0,1-.93,0,8.47,8.47,0,0,1-1,0,2.68,2.68,0,0,1-.61-.13.77.77,0,0,1-.33-.23.58.58,0,0,1-.11-.35v-1.85a10.5,10.5,0,0,1-2.69,2.14,6.4,6.4,0,0,1-3.12.76,6.48,6.48,0,0,1-3.21-.73,6.1,6.1,0,0,1-2.14-2,8.19,8.19,0,0,1-1.2-2.91,15.93,15.93,0,0,1-.38-3.51,15.31,15.31,0,0,1,.48-4,9.08,9.08,0,0,1,1.38-3,6.21,6.21,0,0,1,2.28-1.92,6.93,6.93,0,0,1,3.13-.67,5.57,5.57,0,0,1,2.53.57,9.13,9.13,0,0,1,2.26,1.66v-9a.57.57,0,0,1,.1-.34.85.85,0,0,1,.37-.25,3.25,3.25,0,0,1,.72-.16c.29,0,.68,0,1.13,0s.84,0,1.14,0a3.14,3.14,0,0,1,.71.16.92.92,0,0,1,.37.25.58.58,0,0,1,.11.34V166Zm-4.65-11.1a10.38,10.38,0,0,0-1.93-1.94,3.23,3.23,0,0,0-1.93-.67,2.65,2.65,0,0,0-1.57.46,3.22,3.22,0,0,0-1.07,1.21,6.51,6.51,0,0,0-.59,1.71,8.75,8.75,0,0,0-.2,1.92,12.18,12.18,0,0,0,.17,2,6.06,6.06,0,0,0,.55,1.76,3.2,3.2,0,0,0,1,1.24,2.62,2.62,0,0,0,1.6.47,3.34,3.34,0,0,0,.94-.14,4,4,0,0,0,.93-.46,6.37,6.37,0,0,0,1-.83c.33-.34.7-.76,1.1-1.25v-5.51Zm24.65-5.55a2,2,0,0,1,0,.23,1.81,1.81,0,0,1,0,.29,3.21,3.21,0,0,1-.07.36c0,.14-.07.29-.12.46l-5,15.05a1.52,1.52,0,0,1-.25.51,1,1,0,0,1-.52.31,5.21,5.21,0,0,1-1,.15c-.41,0-1,0-1.63,0s-1.19,0-1.61-.05a4.85,4.85,0,0,1-1-.16.92.92,0,0,1-.5-.31,1.42,1.42,0,0,1-.26-.49l-5-15.05c-.07-.25-.13-.47-.17-.66a3.27,3.27,0,0,1-.08-.44,1.93,1.93,0,0,1,0-.24.51.51,0,0,1,.1-.32.82.82,0,0,1,.37-.24,3.24,3.24,0,0,1,.71-.13c.3,0,.69,0,1.14,0s.92,0,1.23,0a4.25,4.25,0,0,1,.73.13.69.69,0,0,1,.38.25,1.5,1.5,0,0,1,.19.38l3.77,12.21.12.47.11-.47,3.7-12.21a1,1,0,0,1,.18-.38.77.77,0,0,1,.38-.25,4.21,4.21,0,0,1,.7-.13c.3,0,.68,0,1.15,0s.84,0,1.14,0a2.92,2.92,0,0,1,.68.13.68.68,0,0,1,.33.24.51.51,0,0,1,.1.32Zm17.75,7.86a1.85,1.85,0,0,1-.38,1.27,1.37,1.37,0,0,1-1.06.41H181a6.46,6.46,0,0,0,.26,1.92,3.62,3.62,0,0,0,.79,1.46,3.54,3.54,0,0,0,1.42.92,6,6,0,0,0,2.07.32,11.47,11.47,0,0,0,2.16-.18,13,13,0,0,0,1.61-.4c.45-.14.83-.27,1.13-.39a2.07,2.07,0,0,1,.72-.18.55.55,0,0,1,.28.06.52.52,0,0,1,.19.24,1.55,1.55,0,0,1,.11.47c0,.2,0,.46,0,.77s0,.51,0,.7a3,3,0,0,1-.06.49,1,1,0,0,1-.1.34,1.31,1.31,0,0,1-.2.28,2.49,2.49,0,0,1-.66.35,11.23,11.23,0,0,1-1.38.45c-.56.14-1.2.27-1.92.38a15.1,15.1,0,0,1-2.3.16,12,12,0,0,1-3.89-.56,6.88,6.88,0,0,1-2.78-1.69,7,7,0,0,1-1.67-2.87,13.65,13.65,0,0,1-.55-4.06,12.77,12.77,0,0,1,.58-4,8.3,8.3,0,0,1,1.68-3,7.16,7.16,0,0,1,2.67-1.88,9.18,9.18,0,0,1,3.56-.66,9,9,0,0,1,3.56.62,6.57,6.57,0,0,1,2.44,1.7,7,7,0,0,1,1.4,2.58,11.25,11.25,0,0,1,.44,3.25v.74ZM188,155.91a4.85,4.85,0,0,0-.79-3.11,3.08,3.08,0,0,0-2.62-1.13,3.32,3.32,0,0,0-1.56.34,3.15,3.15,0,0,0-1.11.9,4.09,4.09,0,0,0-.66,1.34,6.78,6.78,0,0,0-.28,1.66Zm19.1-5c0,.45,0,.82,0,1.1a4.88,4.88,0,0,1-.11.67.73.73,0,0,1-.2.34.5.5,0,0,1-.31.09,1,1,0,0,1-.34-.07l-.41-.14-.51-.14a3,3,0,0,0-.62-.06,2,2,0,0,0-.78.16,3.28,3.28,0,0,0-.82.49,6.17,6.17,0,0,0-.87.89,15.85,15.85,0,0,0-1,1.38V166a.52.52,0,0,1-.12.33.75.75,0,0,1-.38.23,3.41,3.41,0,0,1-.71.14,13,13,0,0,1-2.28,0,3.41,3.41,0,0,1-.71-.14.8.8,0,0,1-.38-.23.52.52,0,0,1-.12-.33V149.4a.58.58,0,0,1,.1-.32.62.62,0,0,1,.33-.24,2.86,2.86,0,0,1,.62-.14,8.73,8.73,0,0,1,1,0,9.09,9.09,0,0,1,1,0,2.4,2.4,0,0,1,.61.14.62.62,0,0,1,.3.24.51.51,0,0,1,.1.32v2.07a12.93,12.93,0,0,1,1.23-1.53,7.52,7.52,0,0,1,1.1-1,3.55,3.55,0,0,1,1-.49,4.07,4.07,0,0,1,1-.14l.52,0,.58.09.52.15a1,1,0,0,1,.33.18.7.7,0,0,1,.15.2,2.7,2.7,0,0,1,.08.31,5,5,0,0,1,.06.59c0,.26,0,.61,0,1Zm12.72,13.45a5.78,5.78,0,0,1-.1,1.26,1.14,1.14,0,0,1-.76.93,4.66,4.66,0,0,1-.77.24,8.16,8.16,0,0,1-1,.16,9.07,9.07,0,0,1-1,.06,7.61,7.61,0,0,1-2.42-.36,4.12,4.12,0,0,1-1.7-1.09,4.55,4.55,0,0,1-1-1.85,9.86,9.86,0,0,1-.32-2.65v-8.51h-2a.6.6,0,0,1-.54-.44,4,4,0,0,1-.19-1.47,6.12,6.12,0,0,1,0-.92,2.33,2.33,0,0,1,.14-.59.62.62,0,0,1,.24-.3.51.51,0,0,1,.32-.1h2v-3.72a.61.61,0,0,1,.1-.34.91.91,0,0,1,.37-.24,3.33,3.33,0,0,1,.74-.16c.3,0,.68,0,1.13,0s.84,0,1.14,0a3.22,3.22,0,0,1,.73.16.91.91,0,0,1,.37.24.62.62,0,0,1,.11.34v3.72h3.61a.51.51,0,0,1,.32.1.68.68,0,0,1,.24.3,2.85,2.85,0,0,1,.14.59,8.08,8.08,0,0,1,0,.92,4.27,4.27,0,0,1-.18,1.47c-.13.29-.31.44-.55.44h-3.62v7.8a3.89,3.89,0,0,0,.43,2.05,1.65,1.65,0,0,0,1.52.68,2.76,2.76,0,0,0,.67-.07,3.07,3.07,0,0,0,.53-.15,3.22,3.22,0,0,0,.39-.15.83.83,0,0,1,.29-.06.36.36,0,0,1,.37.32,5.26,5.26,0,0,1,.11.53,6.88,6.88,0,0,1,0,.86Zm8.08,1.63a.52.52,0,0,1-.12.33.8.8,0,0,1-.38.23,3.41,3.41,0,0,1-.71.14,13,13,0,0,1-2.28,0,3.41,3.41,0,0,1-.71-.14.75.75,0,0,1-.38-.23.52.52,0,0,1-.12-.33V149.44a.52.52,0,0,1,.12-.33.83.83,0,0,1,.38-.24,3.28,3.28,0,0,1,.71-.16c.3,0,.68-.05,1.14-.05s.84,0,1.14.05a3.28,3.28,0,0,1,.71.16.89.89,0,0,1,.38.24.52.52,0,0,1,.12.33V166Zm.38-22.28a2.61,2.61,0,0,1-.58,2,3.2,3.2,0,0,1-2.15.54,3.17,3.17,0,0,1-2.14-.52,2.54,2.54,0,0,1-.55-1.88,2.7,2.7,0,0,1,.57-2,3.19,3.19,0,0,1,2.16-.55,3.14,3.14,0,0,1,2.13.54A2.53,2.53,0,0,1,228.3,143.75Z"/><path class="cls-6" d="M244.31,161.33a5.57,5.57,0,0,1-.54,2.5,4.92,4.92,0,0,1-1.5,1.8,6.66,6.66,0,0,1-2.29,1.09,11,11,0,0,1-2.87.36,10.39,10.39,0,0,1-1.79-.14,9.71,9.71,0,0,1-1.52-.36,6.89,6.89,0,0,1-1.12-.44,2.71,2.71,0,0,1-.64-.42,1.3,1.3,0,0,1-.32-.62,4.71,4.71,0,0,1-.12-1.23c0-.36,0-.65,0-.86a2.31,2.31,0,0,1,.11-.52.45.45,0,0,1,.19-.26.49.49,0,0,1,.28-.07,1.35,1.35,0,0,1,.6.24,10.12,10.12,0,0,0,1,.51,9.9,9.9,0,0,0,1.39.53,5.89,5.89,0,0,0,1.8.25,4.18,4.18,0,0,0,1.12-.14,2.7,2.7,0,0,0,.86-.37,1.59,1.59,0,0,0,.56-.62,1.94,1.94,0,0,0,.18-.86,1.43,1.43,0,0,0-.34-1,3.38,3.38,0,0,0-.92-.7,11.37,11.37,0,0,0-1.29-.55c-.48-.18-1-.37-1.48-.58a14.35,14.35,0,0,1-1.47-.73,5.45,5.45,0,0,1-1.29-1,4.88,4.88,0,0,1-.92-1.43,5.34,5.34,0,0,1-.34-2,5.15,5.15,0,0,1,.47-2.19,4.8,4.8,0,0,1,1.34-1.7,6.56,6.56,0,0,1,2.14-1.1,9.65,9.65,0,0,1,2.84-.39,10.91,10.91,0,0,1,1.53.11,12.3,12.3,0,0,1,1.33.28,6.1,6.1,0,0,1,1,.36,3.43,3.43,0,0,1,.59.33,1.09,1.09,0,0,1,.26.28,2.27,2.27,0,0,1,.11.34c0,.13,0,.29.07.48s0,.43,0,.72,0,.61,0,.82a1.82,1.82,0,0,1-.1.5.44.44,0,0,1-.18.26.53.53,0,0,1-.26.06,1.21,1.21,0,0,1-.53-.2c-.23-.12-.53-.26-.89-.41a8.42,8.42,0,0,0-1.23-.41,5.6,5.6,0,0,0-1.6-.2,4.45,4.45,0,0,0-1.11.13,2.3,2.3,0,0,0-.77.37,1.51,1.51,0,0,0-.44.57,1.62,1.62,0,0,0-.15.69,1.41,1.41,0,0,0,.35,1,3.14,3.14,0,0,0,.94.69,9.55,9.55,0,0,0,1.31.56q.73.25,1.5.57a12,12,0,0,1,1.49.72,5.67,5.67,0,0,1,1.32,1,4.66,4.66,0,0,1,.93,1.42,5,5,0,0,1,.36,2Zm8.2,4.7a.57.57,0,0,1-.11.33.79.79,0,0,1-.39.23,3.28,3.28,0,0,1-.71.14,9.15,9.15,0,0,1-1.14.05,9,9,0,0,1-1.13-.05,3.39,3.39,0,0,1-.72-.14.8.8,0,0,1-.38-.23.57.57,0,0,1-.11-.33V149.44a.57.57,0,0,1,.11-.33.89.89,0,0,1,.38-.24,3.25,3.25,0,0,1,.72-.16c.29,0,.68-.05,1.13-.05s.84,0,1.14.05a3.14,3.14,0,0,1,.71.16.87.87,0,0,1,.39.24.57.57,0,0,1,.11.33V166Zm.38-22.28a2.61,2.61,0,0,1-.58,2,4.59,4.59,0,0,1-4.28,0,2.54,2.54,0,0,1-.56-1.88,2.65,2.65,0,0,1,.58-2,4.47,4.47,0,0,1,4.28,0,2.49,2.49,0,0,1,.56,1.88ZM273.06,166a.57.57,0,0,1-.11.33.81.81,0,0,1-.37.23,3.37,3.37,0,0,1-.73.14,9,9,0,0,1-1.12.05,9.23,9.23,0,0,1-1.15-.05,3.37,3.37,0,0,1-.73-.14.81.81,0,0,1-.37-.23.57.57,0,0,1-.11-.33v-9.48a7.91,7.91,0,0,0-.18-1.9,3.54,3.54,0,0,0-.51-1.18,2.28,2.28,0,0,0-.86-.77,2.73,2.73,0,0,0-1.24-.27,3.08,3.08,0,0,0-1.8.66,9.9,9.9,0,0,0-1.9,1.89V166a.57.57,0,0,1-.11.33.8.8,0,0,1-.38.23,3.39,3.39,0,0,1-.72.14,9,9,0,0,1-1.13.05,9.15,9.15,0,0,1-1.14-.05,3.28,3.28,0,0,1-.71-.14.79.79,0,0,1-.39-.23.57.57,0,0,1-.11-.33V149.4a.51.51,0,0,1,.1-.32.58.58,0,0,1,.33-.24,2.61,2.61,0,0,1,.62-.14,8.62,8.62,0,0,1,1,0,8.89,8.89,0,0,1,1,0,2.39,2.39,0,0,1,.62.14.62.62,0,0,1,.3.24.58.58,0,0,1,.1.32v1.92a10.26,10.26,0,0,1,2.8-2.22,6.3,6.3,0,0,1,3-.75,6.6,6.6,0,0,1,2.86.56,5,5,0,0,1,1.88,1.52,6.11,6.11,0,0,1,1,2.25,13,13,0,0,1,.32,3.09V166Zm19.57-15.47a3.19,3.19,0,0,1-.21,1.33c-.14.28-.3.43-.51.43h-2a2.59,2.59,0,0,1,.59,1,3.92,3.92,0,0,1,.17,1.18,6.52,6.52,0,0,1-.48,2.58,5.17,5.17,0,0,1-1.39,1.9,6.24,6.24,0,0,1-2.18,1.17,9.37,9.37,0,0,1-2.84.4,5.42,5.42,0,0,1-1.52-.2,3.65,3.65,0,0,1-1.12-.45,2.06,2.06,0,0,0-.4.58,1.53,1.53,0,0,0-.18.74,1,1,0,0,0,.48.89,2.4,2.4,0,0,0,1.32.39l4,.14a9.85,9.85,0,0,1,2.52.4,5.44,5.44,0,0,1,1.87,1,4.07,4.07,0,0,1,1.15,1.49,4.7,4.7,0,0,1,.4,2,5.09,5.09,0,0,1-.54,2.31,5.3,5.3,0,0,1-1.62,1.9,8.51,8.51,0,0,1-2.71,1.26,14,14,0,0,1-3.81.46,17.29,17.29,0,0,1-3.63-.33,8,8,0,0,1-2.45-.93,3.75,3.75,0,0,1-1.4-1.43,3.81,3.81,0,0,1-.44-1.81,4.08,4.08,0,0,1,.16-1.17,4.88,4.88,0,0,1,.46-1.08,5.68,5.68,0,0,1,.76-1,9.09,9.09,0,0,1,1-.9,3.15,3.15,0,0,1-1.24-1.16,3.12,3.12,0,0,1-.43-1.62,4.09,4.09,0,0,1,.5-2,6.53,6.53,0,0,1,1.31-1.63,5,5,0,0,1-1-1.56,5.63,5.63,0,0,1-.4-2.27,6.16,6.16,0,0,1,.52-2.6,5.27,5.27,0,0,1,1.42-1.93,6.24,6.24,0,0,1,2.18-1.21,8.83,8.83,0,0,1,2.79-.42,12,12,0,0,1,1.5.09,9.55,9.55,0,0,1,1.33.25h5.27a.6.6,0,0,1,.52.41,3.51,3.51,0,0,1,.2,1.38Zm-6,3.94a2.83,2.83,0,0,0-.74-2.09,3.29,3.29,0,0,0-3.31-.5,2.33,2.33,0,0,0-.87.63,2.47,2.47,0,0,0-.51.93,3.44,3.44,0,0,0-.17,1.11,2.68,2.68,0,0,0,.75,2,2.79,2.79,0,0,0,2.06.74,3.07,3.07,0,0,0,1.23-.23,2.4,2.4,0,0,0,.87-.61,2.64,2.64,0,0,0,.52-.91,3.16,3.16,0,0,0,.17-1.07Zm1.1,13.26a1.44,1.44,0,0,0-.66-1.28,3.48,3.48,0,0,0-1.85-.48l-3.34-.1a6,6,0,0,0-.76.68,4.75,4.75,0,0,0-.48.62,1.81,1.81,0,0,0-.22.58,2.72,2.72,0,0,0-.06.58,1.53,1.53,0,0,0,.94,1.41,6,6,0,0,0,2.65.48,6.11,6.11,0,0,0,1.79-.22,3.36,3.36,0,0,0,1.17-.56,2.13,2.13,0,0,0,.64-.79,2.39,2.39,0,0,0,.18-.92Zm36.69-2.92a7.76,7.76,0,0,1,.28,1.06.69.69,0,0,1-.15.59,1.22,1.22,0,0,1-.73.24,13.66,13.66,0,0,1-1.43.05c-.64,0-1.13,0-1.48,0a3.6,3.6,0,0,1-.82-.11.73.73,0,0,1-.38-.24,1.13,1.13,0,0,1-.19-.38l-1.58-4.85h-9.1l-1.51,4.71a1.65,1.65,0,0,1-.2.44.79.79,0,0,1-.39.28,3,3,0,0,1-.76.14c-.33,0-.77,0-1.3,0a11.51,11.51,0,0,1-1.34-.06,1,1,0,0,1-.67-.27.71.71,0,0,1-.13-.61,6.39,6.39,0,0,1,.28-1l7.42-21.4a1.55,1.55,0,0,1,.26-.5.89.89,0,0,1,.47-.3,3.87,3.87,0,0,1,.91-.14c.39,0,.89,0,1.53,0s1.32,0,1.75,0a4.62,4.62,0,0,1,1,.14,1,1,0,0,1,.52.3,2,2,0,0,1,.26.56l7.46,21.38Zm-11.07-17.7h0L310,157.39h6.76l-3.39-10.25Zm29.14,3.42a3.19,3.19,0,0,1-.21,1.33c-.14.28-.3.43-.5.43h-2a2.59,2.59,0,0,1,.59,1,3.93,3.93,0,0,1,.18,1.18,6.52,6.52,0,0,1-.49,2.58,5.06,5.06,0,0,1-1.39,1.9,6.29,6.29,0,0,1-2.17,1.17,9.44,9.44,0,0,1-2.85.4,5.42,5.42,0,0,1-1.52-.2,3.65,3.65,0,0,1-1.12-.45,2.29,2.29,0,0,0-.4.58,1.53,1.53,0,0,0-.18.74,1,1,0,0,0,.48.89,2.41,2.41,0,0,0,1.33.39l4,.14a9.85,9.85,0,0,1,2.52.4,5.35,5.35,0,0,1,1.87,1,4.07,4.07,0,0,1,1.15,1.49,4.7,4.7,0,0,1,.41,2,5.1,5.1,0,0,1-.55,2.31,5.3,5.3,0,0,1-1.62,1.9,8.41,8.41,0,0,1-2.71,1.26,14,14,0,0,1-3.81.46,17.12,17.12,0,0,1-3.62-.33,8.06,8.06,0,0,1-2.46-.93,3.75,3.75,0,0,1-1.4-1.43,3.81,3.81,0,0,1-.44-1.81,4.08,4.08,0,0,1,.16-1.17,4.48,4.48,0,0,1,.47-1.08,5.16,5.16,0,0,1,.75-1,8.4,8.4,0,0,1,1-.9,3.09,3.09,0,0,1-1.68-2.78,4.09,4.09,0,0,1,.5-2,6.76,6.76,0,0,1,1.31-1.63,5,5,0,0,1-1-1.56,5.8,5.8,0,0,1-.4-2.27,6.16,6.16,0,0,1,.52-2.6,5.39,5.39,0,0,1,1.42-1.93,6.33,6.33,0,0,1,2.18-1.21,8.85,8.85,0,0,1,2.8-.42,12.09,12.09,0,0,1,1.5.09,9.68,9.68,0,0,1,1.32.25h5.28c.21,0,.38.14.51.41a3.51,3.51,0,0,1,.2,1.38Zm-6,3.94a2.9,2.9,0,0,0-4.06-2.59,2.33,2.33,0,0,0-.87.63,2.47,2.47,0,0,0-.51.93,3.73,3.73,0,0,0-.17,1.11,2.68,2.68,0,0,0,.75,2,2.8,2.8,0,0,0,2.07.74,3,3,0,0,0,1.22-.23,2.4,2.4,0,0,0,.87-.61,2.64,2.64,0,0,0,.52-.91,3.16,3.16,0,0,0,.18-1.07Zm1.1,13.26a1.45,1.45,0,0,0-.67-1.28A3.45,3.45,0,0,0,335,166l-3.33-.1a5.51,5.51,0,0,0-.77.68,3.9,3.9,0,0,0-.47.62,1.85,1.85,0,0,0-.23.58,2.72,2.72,0,0,0-.06.58,1.53,1.53,0,0,0,.94,1.41,6,6,0,0,0,2.65.48,6.19,6.19,0,0,0,1.8-.22,3.54,3.54,0,0,0,1.17-.56,2.2,2.2,0,0,0,.63-.79,2.4,2.4,0,0,0,.19-.92Zm23-10.52a1.85,1.85,0,0,1-.38,1.27,1.4,1.4,0,0,1-1.06.41H349a6.81,6.81,0,0,0,.25,1.92,3.76,3.76,0,0,0,.8,1.46,3.54,3.54,0,0,0,1.42.92,6,6,0,0,0,2.07.32,11.47,11.47,0,0,0,2.16-.18,13,13,0,0,0,1.61-.4c.45-.14.83-.27,1.13-.39a2,2,0,0,1,.72-.18.55.55,0,0,1,.28.06.52.52,0,0,1,.19.24,1.58,1.58,0,0,1,.1.47c0,.2,0,.46,0,.77s0,.51,0,.7a3,3,0,0,1-.06.49.8.8,0,0,1-.11.34,1.26,1.26,0,0,1-.19.28,2.68,2.68,0,0,1-.66.35,11.83,11.83,0,0,1-1.38.45c-.56.14-1.2.27-1.92.38a15.33,15.33,0,0,1-2.31.16,12,12,0,0,1-3.88-.56,6.91,6.91,0,0,1-2.79-1.69,7.06,7.06,0,0,1-1.66-2.87,13.65,13.65,0,0,1-.55-4.06,12.77,12.77,0,0,1,.58-4,8.3,8.3,0,0,1,1.68-3,7.16,7.16,0,0,1,2.67-1.88,10.22,10.22,0,0,1,7.12,0,6.57,6.57,0,0,1,2.44,1.7,6.85,6.85,0,0,1,1.39,2.58,11.25,11.25,0,0,1,.45,3.25v.74ZM356,155.91a4.85,4.85,0,0,0-.79-3.11,3.08,3.08,0,0,0-2.62-1.13A3.32,3.32,0,0,0,351,152a3.07,3.07,0,0,0-1.11.9,4.32,4.32,0,0,0-.67,1.34,6.78,6.78,0,0,0-.27,1.66ZM380.25,166a.51.51,0,0,1-.11.33.81.81,0,0,1-.37.23,3.39,3.39,0,0,1-.72.14,13,13,0,0,1-2.28,0,3.37,3.37,0,0,1-.73-.14.77.77,0,0,1-.36-.23.52.52,0,0,1-.12-.33v-9.48a7.91,7.91,0,0,0-.18-1.9,3.35,3.35,0,0,0-.51-1.18,2.28,2.28,0,0,0-.86-.77,2.68,2.68,0,0,0-1.23-.27,3.08,3.08,0,0,0-1.81.66,9.88,9.88,0,0,0-1.89,1.89V166a.52.52,0,0,1-.12.33.8.8,0,0,1-.38.23,3.41,3.41,0,0,1-.71.14,13,13,0,0,1-2.28,0,3.41,3.41,0,0,1-.71-.14.75.75,0,0,1-.38-.23.52.52,0,0,1-.12-.33V149.4a.51.51,0,0,1,.1-.32.62.62,0,0,1,.33-.24,2.73,2.73,0,0,1,.62-.14,8.73,8.73,0,0,1,1,0,9.09,9.09,0,0,1,1,0,2.4,2.4,0,0,1,.61.14.62.62,0,0,1,.3.24.51.51,0,0,1,.1.32v1.92a10.26,10.26,0,0,1,2.8-2.22,6.3,6.3,0,0,1,3-.75,6.6,6.6,0,0,1,2.86.56,5.07,5.07,0,0,1,1.89,1.52,6.28,6.28,0,0,1,1,2.25,13.09,13.09,0,0,1,.31,3.09V166Zm17.16-2.65c0,.33,0,.59,0,.82s0,.4-.07.55a1.67,1.67,0,0,1-.12.36,1.41,1.41,0,0,1-.28.36,4.52,4.52,0,0,1-.77.52,7.83,7.83,0,0,1-1.23.55,9,9,0,0,1-1.49.39,9.29,9.29,0,0,1-1.68.15,8.92,8.92,0,0,1-3.39-.59,6.48,6.48,0,0,1-2.5-1.77,7.87,7.87,0,0,1-1.51-2.84,13.23,13.23,0,0,1-.51-3.84,13.5,13.5,0,0,1,.62-4.32,8.39,8.39,0,0,1,1.74-3,7.1,7.1,0,0,1,2.65-1.77,9.24,9.24,0,0,1,3.35-.58,9,9,0,0,1,1.47.13,10.49,10.49,0,0,1,1.34.35,7.67,7.67,0,0,1,1.11.51,3.22,3.22,0,0,1,.7.49,1.34,1.34,0,0,1,.29.34,1.51,1.51,0,0,1,.13.36,5.35,5.35,0,0,1,.08.56c0,.22,0,.48,0,.79a4.52,4.52,0,0,1-.18,1.53c-.13.29-.29.43-.49.43a1.12,1.12,0,0,1-.67-.26q-.35-.26-.84-.57a5.87,5.87,0,0,0-1.15-.58,4.47,4.47,0,0,0-1.6-.26,3.21,3.21,0,0,0-2.8,1.4,7.35,7.35,0,0,0-1,4.13,10.36,10.36,0,0,0,.25,2.36,5.06,5.06,0,0,0,.71,1.71,3.11,3.11,0,0,0,1.19,1,3.88,3.88,0,0,0,1.68.34,4.18,4.18,0,0,0,1.66-.29,6.94,6.94,0,0,0,1.22-.64c.35-.24.64-.45.88-.64a1,1,0,0,1,.59-.3.43.43,0,0,1,.28.1.67.67,0,0,1,.18.34,6.06,6.06,0,0,1,.1.65,9.37,9.37,0,0,1,0,1Zm13,3.28-2,5.88a1.24,1.24,0,0,1-.91.67,8.6,8.6,0,0,1-2.18.21,7.58,7.58,0,0,1-1.19-.07,1.6,1.6,0,0,1-.67-.21.51.51,0,0,1-.24-.37,1.06,1.06,0,0,1,.11-.54l2.21-5.57a1.24,1.24,0,0,1-.43-.34,1.59,1.59,0,0,1-.29-.5l-5.7-15.28a3.24,3.24,0,0,1-.25-1,.68.68,0,0,1,.23-.54,1.44,1.44,0,0,1,.75-.27,10.52,10.52,0,0,1,1.4-.07c.53,0,.95,0,1.26,0a2.48,2.48,0,0,1,.73.14.76.76,0,0,1,.38.35,2.91,2.91,0,0,1,.26.66L407.8,161h.06l3.55-11.35a1.36,1.36,0,0,1,.29-.65,1.27,1.27,0,0,1,.59-.23,9.33,9.33,0,0,1,1.43-.07,9.93,9.93,0,0,1,1.34.07,1.58,1.58,0,0,1,.79.28.7.7,0,0,1,.25.55,2.7,2.7,0,0,1-.15.81Z"/><rect class="cls-2" x="251.26" y="28.65" width="7.6" height="11.66"/><rect class="cls-2" x="251.26" y="57.11" width="7.6" height="9.9"/></g></g></svg>