<svg xmlns="http://www.w3.org/2000/svg" xmlns:xlink="http://www.w3.org/1999/xlink" width="1621.089" height="594.905" viewBox="0 0 1621.089 594.905"><defs><clipPath id="a"><path d="M917.245,298.519H2523.69V632.128H917.245V298.519Z" transform="translate(-917.245 -298.519)" fill="none" clip-rule="evenodd"/></clipPath></defs><g transform="translate(4743.711 -4873.998)"><g transform="translate(-4743.711 4873.998)"><g transform="translate(4.836 370.126)"><path d="M1016.557,440.035H994.921l-8.6-22.895H946.979l-8.115,22.895H917.775L956.115,339.3h21.016l39.426,100.734Zm-36.6-39.854L966.391,362.8,953.1,400.181Z" transform="translate(-917.775 -337.588)" fill="#fff"/><path d="M936.966,339.3h36.326c8.178,0,14.406.629,18.718,1.924a32.41,32.41,0,0,1,14.826,9.281,44.209,44.209,0,0,1,9.429,16.3c2.124,6.446,3.208,14.37,3.208,23.825a67.617,67.617,0,0,1-3.027,21.436,44.258,44.258,0,0,1-10.54,17.78,34.6,34.6,0,0,1-13.959,8.042q-6.564,2.147-17.606,2.143H936.966V339.3Zm19.868,17.05v66.7h14.825c5.553,0,9.556-.311,12.036-.967a18.157,18.157,0,0,0,8.023-4.167c2.134-1.97,3.847-5.234,5.2-9.738,1.331-4.5,2.015-10.668,2.015-18.454s-.684-13.75-2.015-17.917a23.151,23.151,0,0,0-5.636-9.756,18.675,18.675,0,0,0-9.218-4.741c-2.771-.656-8.205-.958-16.312-.958Z" transform="translate(-761.987 -337.588)" fill="#fff"/><path d="M990.412,440.035,955.234,339.3H976.8l24.895,74.557L1025.8,339.3h21.084l-35.249,100.734Z" transform="translate(-613.69 -337.591)" fill="#fff"/><path d="M973.927,440.035V339.3H1046.9v17.051H993.8v22.328h49.409v16.958H993.8v27.417h54.979v16.981Z" transform="translate(-461.946 -337.591)" fill="#fff"/><path d="M990.707,440.035V339.3h41.842q15.782,0,22.922,2.717a22.8,22.8,0,0,1,11.46,9.638,29.577,29.577,0,0,1,4.286,15.875c0,7.558-2.179,13.823-6.51,18.746-4.331,4.9-10.842,8.024-19.485,9.282a46.449,46.449,0,0,1,10.658,8.47q4.2,4.609,11.3,16.348l12.036,19.658h-23.771l-14.37-21.938q-7.658-11.748-10.468-14.8a15.4,15.4,0,0,0-5.98-4.194c-2.106-.757-5.435-1.13-10.02-1.13h-4v42.061ZM1010.6,381.89h14.689q14.291,0,17.871-1.222a10.819,10.819,0,0,0,5.569-4.267,13.412,13.412,0,0,0,2.016-7.549,12.26,12.26,0,0,0-2.662-8.215,12.11,12.11,0,0,0-7.5-3.957c-1.6-.21-6.437-.328-14.5-.328H1010.6V381.89Z" transform="translate(-325.73 -337.588)" fill="#fff"/><path d="M1037.373,440.035V356.352h-29.2V339.3h78.216v17.051h-29.127v83.683Z" transform="translate(-183.92 -337.591)" fill="#fff"/><path d="M1024.853,440.035V339.3h19.865V440.035Z" transform="translate(-48.542 -337.591)" fill="#fff"/><path d="M1034.233,408.792l19.339-1.942q1.721,9.984,7.084,14.652c3.556,3.1,8.344,4.669,14.4,4.669,6.391,0,11.224-1.386,14.451-4.176,3.254-2.772,4.887-6,4.887-9.711a9.208,9.208,0,0,0-2.061-6.072c-1.358-1.687-3.737-3.146-7.157-4.358-2.307-.848-7.632-2.3-15.9-4.413q-15.974-4.049-22.412-9.966a26.9,26.9,0,0,1-4.814-34.666,27,27,0,0,1,12.282-10.2q8.042-3.487,19.375-3.492,18.546,0,27.9,8.3c6.237,5.562,9.519,12.947,9.838,22.211l-19.868.894c-.846-5.179-2.688-8.908-5.478-11.16-2.8-2.28-6.994-3.4-12.584-3.4-5.771,0-10.312,1.195-13.566,3.629a7.368,7.368,0,0,0-3.165,6.237,7.774,7.774,0,0,0,2.964,6.127q3.732,3.228,18.264,6.729,14.508,3.529,21.444,7.249a28.158,28.158,0,0,1,10.9,10.249q3.913,6.51,3.911,16.038a30.054,30.054,0,0,1-4.7,16.212,28.242,28.242,0,0,1-13.292,11.233c-5.727,2.462-12.885,3.684-21.428,3.684q-18.668,0-28.668-8.817-10.008-8.835-11.942-25.73Z" transform="translate(27.619 -339.113)" fill="#fff"/><path d="M1052.791,440.035V339.3h19.87V440.035Z" transform="translate(178.256 -337.591)" fill="#fff"/><path d="M1062.745,440.035V339.3h19.34l40.29,67.264V339.3h18.473V440.035h-19.963l-39.668-65.694v65.694Z" transform="translate(259.069 -337.591)" fill="#fff"/><path d="M1130.093,404.524V387.538h42.835v40.136q-6.261,6.182-18.107,10.905a64.9,64.9,0,0,1-24,4.687q-15.429,0-26.926-6.61a41.876,41.876,0,0,1-17.252-18.974,62.434,62.434,0,0,1-5.778-26.834q0-15.714,6.436-27.973a43.905,43.905,0,0,1,18.883-18.746c6.3-3.355,14.171-5.015,23.559-5.015q18.328,0,28.632,7.851,10.311,7.891,13.266,21.773l-19.729,3.774a21.435,21.435,0,0,0-7.841-11.725q-5.732-4.295-14.327-4.294-13.018,0-20.713,8.443-7.7,8.48-7.677,25.092,0,17.917,7.794,26.9,7.768,8.972,20.39,8.963a33.645,33.645,0,0,0,12.536-2.507,43.408,43.408,0,0,0,10.777-6.073V404.524Z" transform="translate(406.182 -339.113)" fill="#fff"/></g><g transform="translate(0 0)"><path d="M917.245,298.519H2523.69V632.128H917.245V298.519Z" transform="translate(-917.245 -298.519)" fill="#c02f1d" fill-rule="evenodd"/><g transform="translate(0.002 0.002)"><g clip-path="url(#a)"><path d="M894.667,461.093h181.672q14.06-44.231,28.129-88.5,14.06-44.217,28.174-88.579,13.992,44.354,28.038,88.579,13.991,44.23,28.128,88.5h181.809q-36.831,27.394-73.535,54.789-36.681,27.326-73.389,54.752,13.991,44.286,28.037,88.534,13.991,44.23,28.129,88.4-36.847-27.243-73.637-54.643-36.762-27.34-73.58-54.8c-24.555,18.263-49.117,36.617-73.672,54.8q-36.913,27.312-73.728,54.643,13.994-44.148,28.085-88.4,13.975-44.2,28.128-88.534-36.776-27.326-73.444-54.752-36.694-27.312-73.344-54.789Z" transform="translate(-1100.519 -416.255)" fill="#fff" fill-rule="evenodd"/></g></g><path d="M948.328,298.52H2286.01v333.6H948.328V298.52Z" transform="translate(-664.922 -298.515)" fill="#1a1818" fill-rule="evenodd"/><path d="M953.532,485.286l76.854-4.923c1.643,12.765,5.053,22.475,10.158,29.2,8.279,10.832,20.2,16.194,35.66,16.194q17.246,0,26.643-8.288,9.313-8.315,9.309-19.238c0-6.912-2.918-13.139-8.881-18.619s-19.713-10.65-41.376-15.5q-53.121-12.241-75.751-32.441-22.813-20.283-22.813-51.625a71.3,71.3,0,0,1,11.681-38.979q11.679-18.3,35.112-28.83,23.455-10.463,64.244-10.458,50.111,0,76.426,19.057,26.285,19.052,31.274,60.642l-76.116,4.55q-3.023-18.026-12.783-26.277c-6.446-5.416-15.392-8.161-26.771-8.161-9.427,0-16.484,2-21.234,6.1a18.9,18.9,0,0,0-7.121,14.89c0,4.23,1.951,8.033,5.845,11.452,3.839,3.556,12.838,6.793,27.135,9.838q52.941,11.68,75.813,23.661c15.273,7.978,26.406,17.807,33.344,29.642a76.552,76.552,0,0,1,10.468,39.6,86.243,86.243,0,0,1-13.933,47.385q-13.881,21.773-38.887,32.943-24.907,11.215-62.9,11.206-66.633,0-92.308-26.269-25.74-26.245-29.087-66.751Zm320.036-178.964h245.45v66.067h-82.388V573.765h-80.738V372.389h-82.324V306.322Zm478.655,223.295h-92l-12.656,44.148h-82.507l98.208-267.443h88.041l98.263,267.443h-84.513l-12.84-44.148Zm-16.912-57.844-28.9-96.147-28.721,96.147Zm201.814,101.992V306.322h134.587q37.421,0,57.2,6.6a60.8,60.8,0,0,1,31.94,24.354q12.144,17.739,12.109,43.273c0,14.88-3.1,27.645-9.247,38.413a74.335,74.335,0,0,1-25.493,26.223c-6.937,4.23-16.365,7.777-28.356,10.522q14.416,4.95,21.053,9.9c2.918,2.179,7.24,6.847,12.9,14.005,5.653,7.221,9.429,12.7,11.315,16.622l39.061,77.529h-91.26l-43.145-81.759c-5.473-10.522-10.349-17.434-14.662-20.607a33.375,33.375,0,0,0-19.778-6.172h-7.12V573.765Zm81.1-159.1H2052.3c3.653,0,10.767-1.176,21.362-3.611a21.611,21.611,0,0,0,13.137-8.406,25.237,25.237,0,0,0,5.053-15.5c0-8.662-2.682-15.254-8.033-19.868q-8.026-7-30.116-6.975h-35.478v54.36Z" transform="translate(-622.66 -272.038)" fill="#fff"/></g></g><path d="M5.041,0V-50.552H16.117V-9.017H38.695V0ZM51.83,0V-50.552H86.691v8.591H62.622v11.928H85.2v8.662H62.622v12.78H86.691V0Zm86.833,0-4.828-11.218H110.192L105.364,0H94.217l23.217-50.552h8.946L149.6,0ZM113.884-19.667h16.33l-8.165-18.957ZM160.318,0V-50.552H194.4v8.733H171.252V-30.1h21.726v8.8H171.252V0Zm47.428,0V-50.552h11.076V-9.017H241.4V0Zm46.789,0V-50.552H289.4v8.591H265.327v11.928h22.578v8.662H265.327v12.78H289.4V0Zm61.131,0V-41.535H299.833v-9.017h42.884v9.017H326.884V0Zm104.3,0-4.828-11.218H391.494L386.666,0H375.519l23.217-50.552h8.946L430.9,0ZM395.186-19.667h16.33l-8.165-18.957ZM441.62-50.552h19.525a31.6,31.6,0,0,1,14.271,2.982,20.841,20.841,0,0,1,9.124,8.662A27.483,27.483,0,0,1,487.7-25.347a27.894,27.894,0,0,1-3.124,13.632,20.838,20.838,0,0,1-9.088,8.7A31.456,31.456,0,0,1,461.145,0H441.62ZM460.435-8.946q16.188,0,16.188-16.4,0-16.259-16.188-16.259H452.7v32.66Zm77.958-41.606H549.54L526.82,0h-8.875l-22.72-50.552h11.5l15.762,36.707ZM559.906,0V-50.552h34.861v8.591H570.7v11.928h22.578v8.662H570.7v12.78h24.069V0ZM651.5,0H639.781L633.32-16.827a4.9,4.9,0,0,0-2.378-2.769,9.111,9.111,0,0,0-4.012-.781h-7.171V0H608.825V-50.552h22.507q8.8,0,13.348,3.834t4.544,11.005a14.218,14.218,0,0,1-2.662,8.662,14.541,14.541,0,0,1-7.633,5.183q4.473.923,6.461,6.177ZM629.7-28.826q4.757,0,6.958-1.6a5.768,5.768,0,0,0,2.2-5.005,5.768,5.768,0,0,0-2.2-5.006q-2.2-1.6-6.958-1.6H619.617v13.206ZM675.707,0V-41.535H659.874v-9.017h42.884v9.017H686.925V0Zm39.334,0V-50.552h11.076V0Zm45.3.639A39.62,39.62,0,0,1,749.3-.887a25.092,25.092,0,0,1-8.768-4.3l3.55-7.952a27.847,27.847,0,0,0,16.33,5.112q4.828,0,7.419-1.526a4.753,4.753,0,0,0,2.591-4.3,4.234,4.234,0,0,0-2.378-3.8,31.138,31.138,0,0,0-8.343-2.663,44.154,44.154,0,0,1-10.615-3.3,14.007,14.007,0,0,1-5.751-4.757,12.645,12.645,0,0,1-1.81-6.994,13.954,13.954,0,0,1,2.52-8.165,16.579,16.579,0,0,1,7.065-5.645,25.612,25.612,0,0,1,10.508-2.023,34.369,34.369,0,0,1,10.366,1.562,21.123,21.123,0,0,1,7.952,4.26l-3.55,7.952a23.622,23.622,0,0,0-14.7-5.112,12.113,12.113,0,0,0-6.816,1.7,5.285,5.285,0,0,0-2.556,4.615,4.253,4.253,0,0,0,.958,2.84,7.987,7.987,0,0,0,3.23,2.024,41.3,41.3,0,0,0,6.461,1.739q9.727,2.13,14.023,5.538a11.233,11.233,0,0,1,4.3,9.3,13.328,13.328,0,0,1-5.538,11.254Q770.208.639,760.339.639ZM795.7,0V-50.552h11.076V0Zm60.989-50.552h10.437V0h-8.236L833.682-32.234V0H823.316V-50.552h8.165l25.205,32.163ZM927.047-27.9V-3.124a36.577,36.577,0,0,1-8.626,2.769A51.11,51.11,0,0,1,908.3.639a29.31,29.31,0,0,1-13.916-3.124,21.569,21.569,0,0,1-9.053-8.946,28.779,28.779,0,0,1-3.159-13.916,28.306,28.306,0,0,1,3.159-13.7,21.951,21.951,0,0,1,8.946-8.982,27.789,27.789,0,0,1,13.526-3.16A33.662,33.662,0,0,1,917.995-49.7a21.212,21.212,0,0,1,7.774,4.189l-3.55,7.952a26.593,26.593,0,0,0-6.887-3.692,22.336,22.336,0,0,0-7.242-1.136q-14.626,0-14.626,17.04,0,17.4,15.265,17.4a33.885,33.885,0,0,0,8.378-1.065V-20.164h-9.94V-27.9ZM1007.916,0l-4.828-11.218H979.445L974.617,0H963.47l23.217-50.552h8.946L1018.85,0ZM983.137-19.667h16.33L991.3-38.624Zm88.4-8.236V-3.124a36.576,36.576,0,0,1-8.626,2.769,51.11,51.11,0,0,1-10.118.994,29.31,29.31,0,0,1-13.916-3.124,21.569,21.569,0,0,1-9.052-8.946,28.779,28.779,0,0,1-3.159-13.916,28.306,28.306,0,0,1,3.159-13.7,21.95,21.95,0,0,1,8.946-8.982,27.79,27.79,0,0,1,13.526-3.16,33.662,33.662,0,0,1,10.188,1.491,21.213,21.213,0,0,1,7.775,4.189l-3.55,7.952a26.6,26.6,0,0,0-6.887-3.692,22.337,22.337,0,0,0-7.242-1.136q-14.626,0-14.626,17.04,0,17.4,15.265,17.4a33.887,33.887,0,0,0,8.378-1.065V-20.164h-9.94V-27.9Zm15.9,27.9V-50.552H1122.3v8.591h-24.069v11.928h22.578v8.662h-22.578v12.78H1122.3V0Zm82.289-50.552h10.437V0h-8.236l-25.205-32.234V0h-10.366V-50.552h8.165l25.2,32.163ZM1220.419.639a26.745,26.745,0,0,1-13.384-3.231,21.787,21.787,0,0,1-8.768-9.088,29.169,29.169,0,0,1-3.053-13.668,29.008,29.008,0,0,1,3.053-13.6A21.564,21.564,0,0,1,1207.035-48a26.983,26.983,0,0,1,13.384-3.195,30.221,30.221,0,0,1,9.62,1.527,19.735,19.735,0,0,1,7.49,4.3l-3.479,7.952a25.932,25.932,0,0,0-6.638-3.728,19.735,19.735,0,0,0-6.781-1.172q-6.816,0-10.437,4.331t-3.621,12.638q0,8.378,3.621,12.745t10.437,4.367a19.735,19.735,0,0,0,6.781-1.172,25.932,25.932,0,0,0,6.638-3.727l3.479,7.952a19.734,19.734,0,0,1-7.49,4.3A30.221,30.221,0,0,1,1220.419.639Zm74.763-51.191L1274.237-19.6V0h-11.076V-19.667l-20.874-30.885h12.567l13.774,21.584,13.916-21.584Z" transform="translate(-4578.711 5468.264)" fill="#fff"/></g></svg>